Land_normalized_pl10_filtered_grf
version=1
nRows=25
nColumns=37
inDegrees=yes
endheader
time		1_ground_force_vx		1_ground_force_vy		1_ground_force_vz		1_ground_force_px		1_ground_force_py		1_ground_force_pz		1_ground_torque_x		1_ground_torque_y		1_ground_torque_z		2_ground_force_vx		2_ground_force_vy		2_ground_force_vz		2_ground_force_px		2_ground_force_py		2_ground_force_pz		2_ground_torque_x		2_ground_torque_y		2_ground_torque_z		3_ground_force_vx		3_ground_force_vy		3_ground_force_vz		3_ground_force_px		3_ground_force_py		3_ground_force_pz		3_ground_torque_x		3_ground_torque_y		3_ground_torque_z		4_ground_force_vx		4_ground_force_vy		4_ground_force_vz		4_ground_force_px		4_ground_force_py		4_ground_force_pz		4_ground_torque_x		4_ground_torque_y		4_ground_torque_z		
0.963667		-23.832410		936.113819		223.550053		0.135882		0.000000		0.167971		-0.715869		28.118848		6.714962		50.417967		911.149776		293.068078		-0.181608		0.000000		0.194821		2.534065		45.795093		14.729828		0.429634		-0.752252		-1.282548		0.413517		1.262897		1.873808		0.038765		0.002730		0.010965		-2.568968		-1.723588		-2.355753		-0.353141		1.255941		1.901008		0.035826		-0.042332		0.040420		
0.966495		-26.002364		938.684745		224.101021		0.136717		0.000000		0.168686		-0.769095		27.764313		6.628435		55.130062		916.630457		294.602058		-0.182471		0.000000		0.195398		2.803667		46.615697		14.982133		0.394654		-0.762872		-1.341074		0.413523		1.262919		1.873877		0.038934		-0.000455		0.014659		-2.605712		-1.697438		-2.393128		-0.353129		1.255967		1.901119		0.036511		-0.038703		0.040591		
0.969323		-29.007650		942.484675		224.373947		0.137713		0.000000		0.169543		-0.842282		27.366947		6.515154		59.872269		922.084477		295.734872		-0.183336		0.000000		0.196055		3.076479		47.380194		15.195975		0.360884		-0.759204		-1.407295		0.413531		1.262941		1.873949		0.038920		-0.003278		0.018117		-2.617147		-1.675553		-2.426368		-0.353120		1.255992		1.901232		0.036808		-0.034734		0.041077		
0.972152		-32.844055		947.168392		224.389720		0.138846		0.000000		0.170533		-0.933406		26.918402		6.377132		64.438117		927.280343		296.368220		-0.184174		0.000000		0.196777		3.338775		48.045652		15.355875		0.331968		-0.740152		-1.478081		0.413540		1.262960		1.874025		0.038676		-0.005460		0.021040		-2.604712		-1.659093		-2.456618		-0.353114		1.256014		1.901345		0.036653		-0.030656		0.041898		
0.974980		-37.472162		952.489197		224.138047		0.140096		0.000000		0.171652		-1.039263		26.416691		6.216329		68.644210		931.974867		296.444013		-0.184966		0.000000		0.197551		3.577920		48.577001		15.451448		0.310868		-0.705201		-1.549633		0.413552		1.262978		1.874102		0.038184		-0.006850		0.023221		-2.570007		-1.648788		-2.487565		-0.353110		1.256032		1.901456		0.036013		-0.026654		0.043008		
0.977808		-42.801721		958.310289		223.568259		0.141440		0.000000		0.172908		-1.155358		25.868597		6.035007		72.337648		935.934283		295.949626		-0.185706		0.000000		0.198363		3.783216		48.948767		15.477976		0.298831		-0.654527		-1.617984		0.413565		1.262994		1.874179		0.037481		-0.007447		0.024559		-2.515044		-1.645134		-2.524329		-0.353110		1.256046		1.901562		0.034895		-0.022857		0.044275		
0.980636		-48.666754		964.606788		222.594380		0.142852		0.000000		0.174319		-1.276069		25.293067		5.836686		75.425776		938.994481		294.928001		-0.186392		0.000000		0.199199		3.948133		49.151299		15.437891		0.294764		-0.589358		-1.679755		0.413578		1.263008		1.874253		0.036657		-0.007428		0.025084		-2.442891		-1.648335		-2.571346		-0.353113		1.256057		1.901661		0.033345		-0.019341		0.045510		
0.983465		-54.843518		971.473667		221.089795		0.144305		0.000000		0.175905		-1.395518		24.719739		5.625770		77.874712		941.079744		293.444392		-0.187032		0.000000		0.200054		4.070214		49.186647		15.337219		0.296185		-0.511490		-1.732504		0.413590		1.263020		1.874322		0.035849		-0.007086		0.024910		-2.357338		-1.658422		-2.630764		-0.353118		1.256065		1.901752		0.031453		-0.016139		0.046498		
0.986293		-61.043747		979.104997		218.894328		0.145766		0.000000		0.177688		-1.507957		24.187211		5.407455		79.723532		942.245145		291.566542		-0.187637		0.000000		0.200931		4.151741		49.069086		15.183849		0.300392		-0.423462		-1.774899		0.413598		1.263030		1.874386		0.035228		-0.006794		0.024217		-2.263350		-1.674966		-2.701604		-0.353125		1.256070		1.901833		0.029355		-0.013265		0.047037		
0.989121		-66.935291		987.744255		215.842074		0.147200		0.000000		0.179681		-1.608552		23.737191		5.187076		81.097721		942.721572		289.340820		-0.188216		0.000000		0.201844		4.200195		48.825248		14.985487		0.305828		-0.328752		-1.806808		0.413601		1.263038		1.874442		0.034963		-0.006917		0.023223		-2.167129		-1.696762		-2.779952		-0.353135		1.256072		1.901903		0.027238		-0.010703		0.046972		
0.991949		-72.166673		997.662836		211.756880		0.148573		0.000000		0.181892		-1.693504		23.411813		4.969237		82.183804		942.901579		286.756206		-0.188775		0.000000		0.202825		4.226071		48.486078		14.745640		0.313094		-0.231556		-1.828569		0.413598		1.263045		1.874491		0.035199		-0.007740		0.022144		-2.075597		-1.721969		-2.860561		-0.353148		1.256073		1.901962		0.025326		-0.008416		0.046211		
0.994778		-76.393301		1009.105181		206.474046		0.149852		0.000000		0.184316		-1.760077		23.249560		4.757139		83.218559		943.346794		283.731295		-0.189314		0.000000		0.203910		4.241790		48.084023		14.462290		0.325211		-0.136854		-1.840706		0.413588		1.263050		1.874533		0.036026		-0.009407		0.021182		-1.996013		-1.748185		-2.938186		-0.353163		1.256073		1.902010		0.023844		-0.006348		0.044734		
0.997606		-79.335050		1022.205981		199.880734		0.151010		0.000000		0.186933		-1.806518		23.276396		4.551444		84.456506		944.737506		280.119257		-0.189819		0.000000		0.205149		4.259589		47.648157		14.127924		0.346887		-0.049898		-1.843985		0.413571		1.263053		1.874567		0.037441		-0.011887		0.020497		-1.934869		-1.772775		-3.008879		-0.353180		1.256073		1.902048		0.022976		-0.004423		0.042604		
1.000434		-80.785364		1036.969645		191.910446		0.152030		0.000000		0.189710		-1.831048		23.503533		4.349766		86.141287		947.824927		275.708809		-0.190273		0.000000		0.206588		4.289571		47.198808		13.729477		0.383301		0.024262		-1.839458		0.413547		1.263053		1.874593		0.039367		-0.015004		0.020190		-1.897318		-1.793154		-3.070238		-0.353199		1.256072		1.902075		0.022826		-0.002573		0.039957		
1.003263		-80.655020		1053.193734		182.584324		0.152906		0.000000		0.192599		-1.831895		23.920928		4.146981		88.479251		953.349499		270.253261		-0.190650		0.000000		0.208269		4.338360		46.745265		13.251290		0.438342		0.081485		-1.828900		0.413519		1.263051		1.874615		0.041635		-0.018478		0.020281		-1.886118		-1.806969		-3.121058		-0.353222		1.256072		1.902092		0.023385		-0.000762		0.036995		
1.006091		-79.004662		1070.423738		172.040654		0.153643		0.000000		0.195532		-1.807954		24.495783		3.936997		91.604857		961.904999		263.519672		-0.190927		0.000000		0.210211		4.407732		46.283913		12.679805		0.512956		0.119489		-1.814803		0.413489		1.263047		1.874630		0.044011		-0.021994		0.020701		-1.900689		-1.812406		-3.160668		-0.353246		1.256072		1.902101		0.024527		0.000998		0.033970		
1.008919		-76.015897		1087.963500		160.518310		0.154254		0.000000		0.198438		-1.759216		25.178534		3.714828		95.576800		973.895049		255.305179		-0.191084		0.000000		0.212416		4.494573		45.798321		12.006025		0.604979		0.137911		-1.799920		0.413460		1.263040		1.874641		0.046229		-0.025255		0.021306		-1.937555		-1.808327		-3.187929		-0.353272		1.256074		1.902101		0.026043		0.002624		0.031141		
1.011747		-72.007807		1104.868391		148.377668		0.154757		0.000000		0.201236		-1.688202		25.903531		3.478665		100.350867		989.389683		245.500140		-0.191119		0.000000		0.214847		4.590712		45.261582		11.231047		0.708931		0.138697		-1.786656		0.413432		1.263031		1.874646		0.048017		-0.028028		0.021902		-1.990366		-1.794757		-3.201074		-0.353299		1.256075		1.902092		0.027681		0.003957		0.028739		
1.014576		-67.404567		1120.026742		136.076551		0.155173		0.000000		0.203852		-1.600582		26.596148		3.231257		105.774444		1008.045101		234.134171		-0.191042		0.000000		0.217445		4.684309		44.642330		10.368982		0.816756		0.125717		-1.776224		0.413406		1.263020		1.874647		0.049154		-0.030151		0.022286		-2.051019		-1.773180		-3.198022		-0.353328		1.256078		1.902076		0.029196		0.004784		0.026929		
1.017404		-62.686044		1132.213649		124.138491		0.155524		0.000000		0.206213		-1.504810		27.179456		2.980003		111.605709		1029.129617		221.377577		-0.190879		0.000000		0.220127		4.761964		43.910911		9.445886		0.918822		0.103811		-1.768004		0.413385		1.263007		1.874641		0.049488		-0.031516		0.022292		-2.110948		-1.746301		-3.176783		-0.353356		1.256081		1.902051		0.030391		0.004869		0.025799		
1.020232		-58.349845		1140.238848		113.111329		0.155830		0.000000		0.208263		-1.411507		27.582929		2.736206		117.521973		1051.479309		207.586825		-0.190667		0.000000		0.222798		4.811559		43.049842		8.499309		1.005038		0.078136		-1.759113		0.413369		1.262994		1.874628		0.048960		-0.032063		0.021820		-2.162046		-1.717749		-3.136699		-0.353385		1.256083		1.902016		0.031146		0.004020		0.025356		
1.023061		-54.844332		1143.096093		103.496412		0.156107		0.000000		0.209955		-1.331438		27.750561		2.512547		123.163724		1073.614082		193.282637		-0.190446		0.000000		0.225368		4.825225		42.061468		7.572428		1.066452		0.053112		-1.744774		0.413356		1.262980		1.874606		0.047611		-0.031761		0.020857		-2.197853		-1.691268		-3.079154		-0.353413		1.256084		1.901971		0.031432		0.002132		0.025535		
1.025889		-52.538179		1139.994198		95.714782		0.156368		0.000000		0.211252		-1.273877		27.641078		2.320769		128.167132		1093.841429		179.116412		-0.190253		0.000000		0.227751		4.800500		40.970013		6.708989		1.096040		0.031808		-1.719156		0.413345		1.262965		1.874576		0.045557		-0.030588		0.019471		-2.213870		-1.670212		-3.007686		-0.353439		1.256082		1.901915		0.031288		-0.000800		0.026228		
1.028717		-51.660522		1130.577292		90.017514		0.156627		0.000000		0.212139		-1.244551		27.236699		2.168615		132.213856		1110.430372		165.819811		-0.190118		0.000000		0.229881		4.741529		39.823064		5.946920		1.090229		0.015533		-1.677086		0.413338		1.262951		1.874535		0.042985		-0.028564		0.017801		-2.208299		-1.657131		-2.928019		-0.353463		1.256078		1.901850		0.030816		-0.004659		0.027301		
1.031545		-52.285539		1114.934579		86.461988		0.156893		0.000000		0.212618		-1.244727		26.542540		2.058347		135.066095		1121.803415		154.109278		-0.190060		0.000000		0.231703		4.657417		38.682621		5.314115		1.048990		0.003786		-1.615753		0.413330		1.262937		1.874484		0.040120		-0.025757		0.016032		-2.181796		-1.653617		-2.846750		-0.353483		1.256069		1.901774		0.030146		-0.009246		0.028621		
